<svg width="24" height="24" viewBox="0 0 24 24" fill="none" xmlns="http://www.w3.org/2000/svg">
<path d="M13.5628 3.13669C13.6587 2.59279 14.1794 2.22472 14.711 2.37444C15.7905 2.67848 16.8135 3.16262 17.736 3.80864C18.9323 4.6463 19.9305 5.73581 20.6606 7.00056C21.3907 8.26532 21.8349 9.67463 21.962 11.1294C22.0601 12.2514 21.9677 13.3794 21.6911 14.4663C21.5549 15.0015 20.9758 15.2683 20.4568 15.0793C19.9378 14.8904 19.677 14.3171 19.7998 13.7786C19.9843 12.9694 20.0422 12.1344 19.9696 11.3035C19.8679 10.1397 19.5126 9.01224 18.9285 8.00044C18.3444 6.98864 17.5458 6.11703 16.5888 5.4469C15.9057 4.9685 15.1536 4.60107 14.3606 4.35616C13.8329 4.1932 13.4669 3.68058 13.5628 3.13669Z" fill="#0A1014"/>
<path d="M18.8944 17.785C19.3175 18.14 19.3759 18.775 18.9804 19.1605C18.1774 19.9433 17.2466 20.5872 16.2259 21.0632C14.9023 21.6803 13.4597 22.0001 11.9993 22C10.5389 21.9999 9.09633 21.6799 7.77287 21.0626C6.7522 20.5865 5.82149 19.9425 5.01855 19.1595C4.62314 18.7739 4.68167 18.139 5.10479 17.7841C5.52792 17.4291 6.15484 17.4899 6.55976 17.8654C7.16828 18.4298 7.86245 18.8975 8.61829 19.2501C9.67707 19.7439 10.8312 19.9999 11.9994 20C13.1677 20 14.3218 19.7442 15.3807 19.2505C16.1366 18.8981 16.8308 18.4305 17.4394 17.8662C17.8444 17.4907 18.4713 17.43 18.8944 17.785Z" fill="#0A1014"/>
<path d="M3.54277 15.0781C3.02379 15.267 2.4447 15.0002 2.30857 14.4649C2.03215 13.3781 1.9399 12.2502 2.03806 11.1284C2.16533 9.67367 2.60965 8.2645 3.33978 6.9999C4.06991 5.73529 5.06815 4.64593 6.26432 3.80838C7.1868 3.16246 8.20975 2.6784 9.28915 2.3744C9.82075 2.22469 10.3414 2.59277 10.4373 3.13667C10.5332 3.68056 10.1672 4.19317 9.6395 4.35613C8.84657 4.601 8.09458 4.96837 7.41146 5.44669C6.45452 6.11673 5.65593 6.98822 5.07183 7.99991C4.48772 9.01159 4.13226 10.1389 4.03045 11.3027C3.95776 12.1334 4.01559 12.9684 4.19998 13.7775C4.3227 14.316 4.06175 14.8892 3.54277 15.0781Z" fill="#0A1014"/>
<path fill-rule="evenodd" clip-rule="evenodd" d="M12.0001 16.0001C14.2092 16.0001 16.0001 14.2092 16.0001 12.0001C16.0001 9.79094 14.2092 8.00008 12.0001 8.00008C9.79092 8.00008 8.00006 9.79094 8.00006 12.0001C8.00006 14.2092 9.79092 16.0001 12.0001 16.0001ZM12.0001 18.0001C15.3138 18.0001 18.0001 15.3138 18.0001 12.0001C18.0001 8.68637 15.3138 6.00008 12.0001 6.00008C8.68635 6.00008 6.00006 8.68637 6.00006 12.0001C6.00006 15.3138 8.68635 18.0001 12.0001 18.0001Z" fill="#0A1014"/>
</svg>
